<mxfile host="app.diagrams.net" modified="2023-03-16T02:24:11.020Z" agent="5.0 (Windows NT 10.0; Win64; x64) AppleWebKit/537.36 (KHTML, like Gecko) Chrome/111.0.0.0 Safari/537.36" etag="ok6RLSpbElBi_J2emOYX" version="21.0.6" type="github">
  <diagram name="第 1 页" id="6oxveG5BwwtafLoXkVpU">
    <mxGraphModel dx="1687" dy="944" grid="0" gridSize="10" guides="1" tooltips="1" connect="1" arrows="1" fold="1" page="1" pageScale="1" pageWidth="827" pageHeight="1169" math="0" shadow="0">
      <root>
        <mxCell id="0" />
        <mxCell id="1" parent="0" />
        <mxCell id="XoMbaGuigXxrAGrHr4yX-55" value="" style="rounded=0;whiteSpace=wrap;html=1;fillColor=#eeeeee;strokeColor=#36393d;dashed=1;" vertex="1" parent="1">
          <mxGeometry x="20" y="20" width="640" height="140" as="geometry" />
        </mxCell>
        <mxCell id="XoMbaGuigXxrAGrHr4yX-56" value="" style="rounded=0;whiteSpace=wrap;html=1;fillColor=#eeeeee;strokeColor=#36393d;dashed=1;" vertex="1" parent="1">
          <mxGeometry x="21" y="168" width="639" height="412" as="geometry" />
        </mxCell>
        <mxCell id="XoMbaGuigXxrAGrHr4yX-57" value="" style="rounded=0;whiteSpace=wrap;html=1;dashed=1;fillColor=#eeeeee;strokeColor=#36393d;" vertex="1" parent="1">
          <mxGeometry x="21" y="590" width="639" height="230" as="geometry" />
        </mxCell>
        <mxCell id="XoMbaGuigXxrAGrHr4yX-41" value="API接口" style="text;html=1;strokeColor=none;fillColor=none;align=center;verticalAlign=middle;whiteSpace=wrap;rounded=0;" vertex="1" parent="1">
          <mxGeometry x="74" y="590" width="60" height="30" as="geometry" />
        </mxCell>
        <mxCell id="XoMbaGuigXxrAGrHr4yX-40" style="edgeStyle=orthogonalEdgeStyle;rounded=0;orthogonalLoop=1;jettySize=auto;html=1;entryX=0;entryY=0;entryDx=0;entryDy=45;entryPerimeter=0;" edge="1" parent="1" source="XoMbaGuigXxrAGrHr4yX-34" target="XoMbaGuigXxrAGrHr4yX-37">
          <mxGeometry relative="1" as="geometry">
            <mxPoint x="257" y="732.5" as="targetPoint" />
          </mxGeometry>
        </mxCell>
        <mxCell id="XoMbaGuigXxrAGrHr4yX-34" value="" style="rounded=1;whiteSpace=wrap;html=1;" vertex="1" parent="1">
          <mxGeometry x="34" y="645" width="140" height="175" as="geometry" />
        </mxCell>
        <mxCell id="XoMbaGuigXxrAGrHr4yX-9" value="解析器" style="rounded=1;whiteSpace=wrap;html=1;verticalAlign=top;fillColor=#d5e8d4;strokeColor=#82b366;" vertex="1" parent="1">
          <mxGeometry x="280" y="180" width="290" height="200" as="geometry" />
        </mxCell>
        <mxCell id="XoMbaGuigXxrAGrHr4yX-3" value="" style="rounded=1;whiteSpace=wrap;html=1;fillColor=#1ba1e2;strokeColor=#006EAF;fontColor=#ffffff;" vertex="1" parent="1">
          <mxGeometry x="293.5" y="36" width="253.5" height="100" as="geometry" />
        </mxCell>
        <mxCell id="XoMbaGuigXxrAGrHr4yX-29" style="edgeStyle=orthogonalEdgeStyle;rounded=0;orthogonalLoop=1;jettySize=auto;html=1;exitX=0.5;exitY=1;exitDx=0;exitDy=0;" edge="1" parent="1" source="XoMbaGuigXxrAGrHr4yX-4" target="XoMbaGuigXxrAGrHr4yX-10">
          <mxGeometry relative="1" as="geometry" />
        </mxCell>
        <mxCell id="XoMbaGuigXxrAGrHr4yX-4" value="连接器" style="rounded=1;whiteSpace=wrap;html=1;fillColor=#d5e8d4;strokeColor=#82b366;" vertex="1" parent="1">
          <mxGeometry x="300.5" y="64" width="80" height="40" as="geometry" />
        </mxCell>
        <mxCell id="XoMbaGuigXxrAGrHr4yX-5" value="" style="image;html=1;image=img/lib/clip_art/computers/MacBook_128x128.png" vertex="1" parent="1">
          <mxGeometry x="477" y="44" width="60" height="82" as="geometry" />
        </mxCell>
        <mxCell id="XoMbaGuigXxrAGrHr4yX-17" style="edgeStyle=orthogonalEdgeStyle;rounded=0;orthogonalLoop=1;jettySize=auto;html=1;entryX=0;entryY=0.5;entryDx=0;entryDy=0;" edge="1" parent="1" source="XoMbaGuigXxrAGrHr4yX-10" target="XoMbaGuigXxrAGrHr4yX-11">
          <mxGeometry relative="1" as="geometry" />
        </mxCell>
        <mxCell id="XoMbaGuigXxrAGrHr4yX-10" value="词法分析" style="shape=document;whiteSpace=wrap;html=1;boundedLbl=1;fillColor=#f8cecc;strokeColor=#b85450;" vertex="1" parent="1">
          <mxGeometry x="296" y="210" width="90" height="56" as="geometry" />
        </mxCell>
        <mxCell id="XoMbaGuigXxrAGrHr4yX-11" value="语法分析" style="shape=document;whiteSpace=wrap;html=1;boundedLbl=1;fillColor=#f8cecc;strokeColor=#b85450;" vertex="1" parent="1">
          <mxGeometry x="457" y="210" width="90" height="56" as="geometry" />
        </mxCell>
        <mxCell id="XoMbaGuigXxrAGrHr4yX-20" style="edgeStyle=orthogonalEdgeStyle;rounded=0;orthogonalLoop=1;jettySize=auto;html=1;entryX=0.5;entryY=0;entryDx=0;entryDy=0;" edge="1" parent="1" source="XoMbaGuigXxrAGrHr4yX-12" target="XoMbaGuigXxrAGrHr4yX-19">
          <mxGeometry relative="1" as="geometry" />
        </mxCell>
        <mxCell id="XoMbaGuigXxrAGrHr4yX-12" value="语法树" style="ellipse;whiteSpace=wrap;html=1;fillColor=#e1d5e7;strokeColor=#9673a6;" vertex="1" parent="1">
          <mxGeometry x="376.5" y="320" width="93" height="50" as="geometry" />
        </mxCell>
        <mxCell id="XoMbaGuigXxrAGrHr4yX-18" value="" style="html=1;shadow=0;dashed=0;align=center;verticalAlign=middle;shape=mxgraph.arrows2.arrow;dy=0.6;dx=20;direction=south;notch=0;fillColor=#fff2cc;strokeColor=#d6b656;" vertex="1" parent="1">
          <mxGeometry x="411" y="260" width="20" height="53" as="geometry" />
        </mxCell>
        <mxCell id="XoMbaGuigXxrAGrHr4yX-23" style="edgeStyle=orthogonalEdgeStyle;rounded=0;orthogonalLoop=1;jettySize=auto;html=1;" edge="1" parent="1" source="XoMbaGuigXxrAGrHr4yX-19" target="XoMbaGuigXxrAGrHr4yX-21">
          <mxGeometry relative="1" as="geometry" />
        </mxCell>
        <mxCell id="XoMbaGuigXxrAGrHr4yX-19" value="预处理器" style="rounded=1;whiteSpace=wrap;html=1;fillColor=#d5e8d4;strokeColor=#82b366;" vertex="1" parent="1">
          <mxGeometry x="363" y="410" width="120" height="60" as="geometry" />
        </mxCell>
        <mxCell id="XoMbaGuigXxrAGrHr4yX-21" value="优化器" style="rounded=1;whiteSpace=wrap;html=1;fillColor=#d5e8d4;strokeColor=#82b366;" vertex="1" parent="1">
          <mxGeometry x="363" y="506" width="120" height="60" as="geometry" />
        </mxCell>
        <mxCell id="XoMbaGuigXxrAGrHr4yX-38" style="edgeStyle=orthogonalEdgeStyle;rounded=0;orthogonalLoop=1;jettySize=auto;html=1;entryX=0.5;entryY=0;entryDx=0;entryDy=0;startArrow=none;" edge="1" parent="1" source="XoMbaGuigXxrAGrHr4yX-41" target="XoMbaGuigXxrAGrHr4yX-34">
          <mxGeometry relative="1" as="geometry">
            <Array as="points">
              <mxPoint x="104" y="610" />
              <mxPoint x="104" y="610" />
            </Array>
          </mxGeometry>
        </mxCell>
        <mxCell id="XoMbaGuigXxrAGrHr4yX-52" style="edgeStyle=orthogonalEdgeStyle;rounded=0;orthogonalLoop=1;jettySize=auto;html=1;entryX=0;entryY=0.5;entryDx=0;entryDy=0;" edge="1" parent="1" source="XoMbaGuigXxrAGrHr4yX-22" target="XoMbaGuigXxrAGrHr4yX-4">
          <mxGeometry relative="1" as="geometry">
            <Array as="points">
              <mxPoint x="104" y="84" />
            </Array>
          </mxGeometry>
        </mxCell>
        <mxCell id="XoMbaGuigXxrAGrHr4yX-54" value="返回记录" style="edgeLabel;html=1;align=center;verticalAlign=middle;resizable=0;points=[];" vertex="1" connectable="0" parent="XoMbaGuigXxrAGrHr4yX-52">
          <mxGeometry x="-0.4787" y="4" relative="1" as="geometry">
            <mxPoint as="offset" />
          </mxGeometry>
        </mxCell>
        <mxCell id="XoMbaGuigXxrAGrHr4yX-22" value="执行器" style="rounded=1;whiteSpace=wrap;html=1;fillColor=#d5e8d4;strokeColor=#82b366;" vertex="1" parent="1">
          <mxGeometry x="44" y="509" width="120" height="60" as="geometry" />
        </mxCell>
        <mxCell id="XoMbaGuigXxrAGrHr4yX-25" value="" style="html=1;shadow=0;dashed=0;align=center;verticalAlign=middle;shape=mxgraph.arrows2.arrow;dy=0.67;dx=20;notch=0;fillColor=#fff2cc;strokeColor=#d6b656;rotation=-180;" vertex="1" parent="1">
          <mxGeometry x="296" y="524" width="58" height="30" as="geometry" />
        </mxCell>
        <mxCell id="XoMbaGuigXxrAGrHr4yX-27" style="edgeStyle=orthogonalEdgeStyle;rounded=0;orthogonalLoop=1;jettySize=auto;html=1;entryX=1;entryY=0.5;entryDx=0;entryDy=0;" edge="1" parent="1" source="XoMbaGuigXxrAGrHr4yX-26" target="XoMbaGuigXxrAGrHr4yX-22">
          <mxGeometry relative="1" as="geometry" />
        </mxCell>
        <mxCell id="XoMbaGuigXxrAGrHr4yX-26" value="执行计划" style="ellipse;whiteSpace=wrap;html=1;fillColor=#e1d5e7;strokeColor=#9673a6;" vertex="1" parent="1">
          <mxGeometry x="201" y="514" width="93" height="50" as="geometry" />
        </mxCell>
        <mxCell id="XoMbaGuigXxrAGrHr4yX-8" value="&lt;b&gt;&lt;i&gt;TCP&lt;/i&gt;&lt;/b&gt;" style="html=1;shadow=0;dashed=0;align=center;verticalAlign=middle;shape=mxgraph.arrows2.twoWayArrow;dy=0.65;dx=22;fillColor=#fff2cc;strokeColor=#d6b656;" vertex="1" parent="1">
          <mxGeometry x="387" y="70" width="80" height="30" as="geometry" />
        </mxCell>
        <mxCell id="XoMbaGuigXxrAGrHr4yX-30" value="Innodb" style="rounded=1;whiteSpace=wrap;html=1;" vertex="1" parent="1">
          <mxGeometry x="54" y="660" width="100" height="30" as="geometry" />
        </mxCell>
        <mxCell id="XoMbaGuigXxrAGrHr4yX-31" value="MyISAM" style="rounded=1;whiteSpace=wrap;html=1;" vertex="1" parent="1">
          <mxGeometry x="54" y="700" width="100" height="30" as="geometry" />
        </mxCell>
        <mxCell id="XoMbaGuigXxrAGrHr4yX-32" value="Memory" style="rounded=1;whiteSpace=wrap;html=1;" vertex="1" parent="1">
          <mxGeometry x="54" y="740" width="100" height="30" as="geometry" />
        </mxCell>
        <mxCell id="XoMbaGuigXxrAGrHr4yX-33" value="......" style="rounded=1;whiteSpace=wrap;html=1;" vertex="1" parent="1">
          <mxGeometry x="54" y="780" width="100" height="30" as="geometry" />
        </mxCell>
        <mxCell id="XoMbaGuigXxrAGrHr4yX-37" value="数据" style="shape=cylinder3;whiteSpace=wrap;html=1;boundedLbl=1;backgroundOutline=1;size=15;" vertex="1" parent="1">
          <mxGeometry x="267" y="688" width="83" height="70" as="geometry" />
        </mxCell>
        <mxCell id="XoMbaGuigXxrAGrHr4yX-42" value="" style="edgeStyle=orthogonalEdgeStyle;rounded=0;orthogonalLoop=1;jettySize=auto;html=1;entryX=0.5;entryY=0;entryDx=0;entryDy=0;endArrow=none;" edge="1" parent="1" source="XoMbaGuigXxrAGrHr4yX-22" target="XoMbaGuigXxrAGrHr4yX-41">
          <mxGeometry relative="1" as="geometry">
            <mxPoint x="104" y="569" as="sourcePoint" />
            <mxPoint x="104" y="645" as="targetPoint" />
            <Array as="points" />
          </mxGeometry>
        </mxCell>
        <mxCell id="XoMbaGuigXxrAGrHr4yX-44" value="1" style="ellipse;whiteSpace=wrap;html=1;aspect=fixed;fillColor=#e3c800;fontColor=#000000;strokeColor=#B09500;dashed=1;" vertex="1" parent="1">
          <mxGeometry x="315" y="150" width="20" height="20" as="geometry" />
        </mxCell>
        <mxCell id="XoMbaGuigXxrAGrHr4yX-46" value="2" style="ellipse;whiteSpace=wrap;html=1;aspect=fixed;fillColor=#e3c800;fontColor=#000000;strokeColor=#B09500;dashed=1;" vertex="1" parent="1">
          <mxGeometry x="411" y="210" width="20" height="20" as="geometry" />
        </mxCell>
        <mxCell id="XoMbaGuigXxrAGrHr4yX-47" value="3" style="ellipse;whiteSpace=wrap;html=1;aspect=fixed;fillColor=#e3c800;fontColor=#000000;strokeColor=#B09500;dashed=1;" vertex="1" parent="1">
          <mxGeometry x="431" y="380" width="20" height="20" as="geometry" />
        </mxCell>
        <mxCell id="XoMbaGuigXxrAGrHr4yX-48" value="4" style="ellipse;whiteSpace=wrap;html=1;aspect=fixed;fillColor=#e3c800;fontColor=#000000;strokeColor=#B09500;dashed=1;" vertex="1" parent="1">
          <mxGeometry x="430" y="480" width="20" height="20" as="geometry" />
        </mxCell>
        <mxCell id="XoMbaGuigXxrAGrHr4yX-49" value="5" style="ellipse;whiteSpace=wrap;html=1;aspect=fixed;fillColor=#e3c800;fontColor=#000000;strokeColor=#B09500;dashed=1;" vertex="1" parent="1">
          <mxGeometry x="174" y="514" width="20" height="20" as="geometry" />
        </mxCell>
        <mxCell id="XoMbaGuigXxrAGrHr4yX-50" value="6" style="ellipse;whiteSpace=wrap;html=1;aspect=fixed;fillColor=#e3c800;fontColor=#000000;strokeColor=#B09500;dashed=1;" vertex="1" parent="1">
          <mxGeometry x="110" y="610" width="20" height="20" as="geometry" />
        </mxCell>
        <mxCell id="XoMbaGuigXxrAGrHr4yX-51" value="7" style="ellipse;whiteSpace=wrap;html=1;aspect=fixed;fillColor=#e3c800;fontColor=#000000;strokeColor=#B09500;dashed=1;" vertex="1" parent="1">
          <mxGeometry x="210" y="710" width="20" height="20" as="geometry" />
        </mxCell>
        <mxCell id="XoMbaGuigXxrAGrHr4yX-53" value="8" style="ellipse;whiteSpace=wrap;html=1;aspect=fixed;fillColor=#e3c800;fontColor=#000000;strokeColor=#B09500;dashed=1;" vertex="1" parent="1">
          <mxGeometry x="110" y="230" width="20" height="20" as="geometry" />
        </mxCell>
      </root>
    </mxGraphModel>
  </diagram>
</mxfile>
